<svg width="20" height="22" viewBox="0 0 20 22" fill="none" xmlns="http://www.w3.org/2000/svg">
<mask id="mask0_0_55" style="mask-type:alpha" maskUnits="userSpaceOnUse" x="-2" y="-3" width="24" height="27">
<rect x="-2" y="-2.16666" width="24" height="26" fill="#D9D9D9"/>
</mask>
<g mask="url(#mask0_0_55)">
<path d="M6.5 21.6667V20.0417L8.5 18.4167V12.4583L0 15.1667V13L8.5 7.58333V1.625C8.5 1.17361 8.64583 0.789931 8.9375 0.473958C9.22917 0.157986 9.58333 0 10 0C10.4167 0 10.7708 0.157986 11.0625 0.473958C11.3542 0.789931 11.5 1.17361 11.5 1.625V7.58333L20 13V15.1667L11.5 12.4583V18.4167L13.5 20.0417V21.6667L10 20.5833L6.5 21.6667Z" fill="#4375FB"/>
</g>
</svg>
